<svg width="512" height="512" viewBox="0 0 512 512" fill="none" xmlns="http://www.w3.org/2000/svg">
  <rect width="512" height="512" rx="128" fill="#F5F5F7"/>
  <rect x="60" y="60" width="392" height="392" rx="116" fill="#0B0B0D"/>
  <path d="M151 183C151 165.327 165.327 151 183 151H329C346.673 151 361 165.327 361 183V329C361 346.673 346.673 361 329 361H183C165.327 361 151 346.673 151 329V183Z" fill="white"/>
  <path d="M151 270H210C219.941 270 228 278.059 228 288C228 303.464 240.536 316 256 316C271.464 316 284 303.464 284 288C284 278.059 292.059 270 302 270H361V329C361 346.673 346.673 361 329 361H183C165.327 361 151 346.673 151 329V270Z" fill="#0B0B0D"/>
  <circle cx="391" cy="391" r="49" fill="#78E957" stroke="white" stroke-width="14"/>
</svg>
